<svg width="140" height="48" viewBox="0 0 140 48" fill="none" xmlns="http://www.w3.org/2000/svg">
<g clip-path="url(#clip0_33_275)">
<path d="M14.2125 20.0299H9.28497C8.16497 20.0299 7.08997 19.5849 6.29747 18.7924L0.782471 13.2774L4.11997 9.93994L14.2125 20.0324V20.0299Z" fill="#E9C369"/>
<path d="M18.6475 15.5949H13.72C12.6 15.5949 11.525 15.1499 10.7325 14.3574L5.21753 8.84238L8.55503 5.50488L18.6475 15.5974V15.5949Z" fill="#E9C369"/>
<path d="M23.0825 11.1601H18.155C17.035 11.1601 15.96 10.7151 15.1675 9.92257L9.65253 4.40757L12.99 1.07007L23.0825 11.1626V11.1601Z" fill="#E9C369"/>
<path d="M19.885 14.2725L16.4 10.7875C15.6075 9.995 15.1625 8.92 15.1625 7.8V0H19.885V14.2725Z" fill="#E9C369"/>
<path d="M26.16 14.2725L22.675 10.7875C21.8825 9.995 21.4375 8.92 21.4375 7.8V0H26.16V14.2725Z" fill="#E9C369"/>
<path d="M32.4325 14.2725L28.9475 10.7875C28.155 9.995 27.71 8.92 27.71 7.8V0H32.4325V14.2725Z" fill="#E9C369"/>
<path d="M27.97 14.2125V9.28497C27.97 8.16497 28.415 7.08997 29.2075 6.29747L34.7225 0.782471L38.06 4.11997L27.9675 14.2125H27.97Z" fill="#E9C369"/>
<path d="M32.405 18.6475V13.72C32.405 12.6 32.85 11.525 33.6425 10.7325L39.1575 5.21753L42.495 8.55503L32.4025 18.6475H32.405Z" fill="#E9C369"/>
<path d="M36.84 23.0826V18.1551C36.84 17.0351 37.285 15.9601 38.0775 15.1676L43.5925 9.65259L46.93 12.9901L36.8375 23.0826H36.84Z" fill="#E9C369"/>
<path d="M33.7275 19.8851L37.2125 16.4001C38.005 15.6076 39.08 15.1626 40.2 15.1626H48V19.8851H33.7275Z" fill="#E9C369"/>
<path d="M33.7275 26.16L37.2125 22.675C38.005 21.8825 39.08 21.4375 40.2 21.4375H48V26.16H33.7275Z" fill="#E9C369"/>
<path d="M33.7275 32.4325L37.2125 28.9475C38.005 28.155 39.08 27.71 40.2 27.71H48V32.4325H33.7275Z" fill="#E9C369"/>
<path d="M33.7875 27.97H38.715C39.835 27.97 40.91 28.415 41.7025 29.2075L47.2175 34.7225L43.88 38.06L33.7875 27.9675V27.97Z" fill="#E9C369"/>
<path d="M29.3525 32.4051H34.28C35.4 32.4051 36.475 32.8501 37.2675 33.6426L42.7825 39.1576L39.445 42.4951L29.3525 32.4026V32.4051Z" fill="#E9C369"/>
<path d="M24.9175 36.8399H29.845C30.965 36.8399 32.04 37.2849 32.8325 38.0774L38.3475 43.5924L35.01 46.9299L24.9175 36.8374V36.8399Z" fill="#E9C369"/>
<path d="M20.03 33.7876V38.7151C20.03 39.8351 19.585 40.9101 18.7925 41.7026L13.2775 47.2176L9.94 43.8801L20.0325 33.7876H20.03Z" fill="#E9C369"/>
<path d="M15.595 29.3525V34.28C15.595 35.4 15.15 36.475 14.3575 37.2675L8.8425 42.7825L5.505 39.445L15.5975 29.3525H15.595Z" fill="#E9C369"/>
<path d="M11.16 24.9175V29.845C11.16 30.965 10.715 32.04 9.92251 32.8325L4.40751 38.3475L1.07001 35.01L11.1625 24.9175H11.16Z" fill="#E9C369"/>
<path d="M14.2725 28.115L10.7875 31.6C9.995 32.3925 8.92 32.8375 7.8 32.8375H0V28.115H14.2725Z" fill="#50808C"/>
<path d="M14.2725 21.8425L10.7875 25.3275C9.995 26.12 8.92 26.565 7.8 26.565H0V21.8425H14.2725Z" fill="#50808C"/>
<path d="M14.2725 15.5701L10.7875 19.0551C9.995 19.8476 8.92 20.2926 7.8 20.2926H0V15.5701H14.2725Z" fill="#50808C"/>
<path d="M28.115 33.7275L31.6 37.2125C32.3925 38.005 32.8375 39.08 32.8375 40.2V48H28.115V33.7275Z" fill="#50808C"/>
<path d="M21.8425 33.7275L25.3275 37.2125C26.12 38.005 26.565 39.08 26.565 40.2V48H21.8425V33.7275Z" fill="#50808C"/>
<path d="M15.57 33.7275L19.055 37.2125C19.8475 38.005 20.2925 39.08 20.2925 40.2V48H15.57V33.7275Z" fill="#50808C"/>
<path d="M59.9075 11.4877H68.9775V13.5927H62.2225V16.1027H68.33V18.2077H62.2225V20.7177H69.14V22.8227H59.9075V11.4827V11.4877Z" fill="#50808C"/>
<path d="M70.3875 11.4875H72.705L78.1475 18.97V11.4875H80.465V22.8275H78.1475L72.705 15.3275V22.8275H70.3875V11.4875Z" fill="#50808C"/>
<path d="M82.0825 11.4875H86.7325C90.49 11.4875 92.4825 13.415 92.4825 17.1575C92.4825 20.9 90.49 22.8275 86.7325 22.8275H82.0825V11.4875ZM86.8125 20.72C88.9025 20.72 90.0675 19.52 90.0675 17.14C90.0675 14.76 88.9 13.5925 86.8125 13.5925H84.4V20.72H86.8125Z" fill="#50808C"/>
<path d="M93.775 11.4876H96.0925V20.7201H102.735V22.8251H93.7775V11.4851L93.775 11.4876Z" fill="#50808C"/>
<path d="M103.868 11.4877H112.938V13.5927H106.183V16.1027H112.29V18.2077H106.183V20.7177H113.1V22.8227H103.868V11.4827V11.4877Z" fill="#50808C"/>
<path d="M114.088 14.7601C114.088 12.2501 115.66 11.2451 119.125 11.2451C122.17 11.2451 124.033 12.2501 124.033 15.1001H121.813C121.813 13.6101 120.468 13.4326 118.93 13.4326C117.165 13.4326 116.5 13.8376 116.5 14.5976C116.5 15.4076 117.375 15.6176 119.513 15.9426C122.428 16.3801 124.163 17.1726 124.163 19.6201C124.163 22.0676 122.575 23.0701 119.013 23.0701C115.935 23.0701 114.023 22.0651 114.023 19.2151H116.243C116.243 20.7226 117.653 20.9151 119.24 20.9151C120.94 20.9151 121.768 20.5751 121.768 19.7326C121.768 18.5976 119.985 18.5501 118.495 18.2901C115.903 17.8376 114.09 17.1401 114.09 14.7601H114.088Z" fill="#50808C"/>
<path d="M125.198 14.7601C125.198 12.2501 126.77 11.2451 130.235 11.2451C133.28 11.2451 135.143 12.2501 135.143 15.1001H132.923C132.923 13.6101 131.578 13.4326 130.04 13.4326C128.275 13.4326 127.61 13.8376 127.61 14.5976C127.61 15.4076 128.485 15.6176 130.623 15.9426C133.538 16.3801 135.273 17.1726 135.273 19.6201C135.273 22.0676 133.685 23.0701 130.123 23.0701C127.045 23.0701 125.133 22.0651 125.133 19.2151H127.353C127.353 20.7226 128.763 20.9151 130.35 20.9151C132.05 20.9151 132.878 20.5751 132.878 19.7326C132.878 18.5976 131.095 18.5501 129.605 18.2901C127.013 17.8376 125.2 17.1401 125.2 14.7601H125.198Z" fill="#50808C"/>
<path d="M59.9075 25.1751H65.5125C68.8 25.1751 69.87 26.3101 69.87 28.5276C69.87 29.4176 69.5775 30.1301 69.0125 30.6651C69.8875 31.2326 70.3575 32.0576 70.3575 33.1426C70.3575 35.3626 69.24 36.5126 65.6775 36.5126H59.91V25.1726L59.9075 25.1751ZM65.415 29.7901C66.76 29.7901 67.4725 29.4976 67.4725 28.5276C67.4725 27.6701 66.76 27.2801 65.4325 27.2801H62.225V29.7901H65.415ZM65.69 34.4076C67.2125 34.4076 67.9575 34.0826 67.9575 33.1451C67.9575 32.3201 67.0825 31.8976 65.69 31.8976H62.2225V34.4076H65.69Z" fill="#50808C"/>
<path d="M79.1675 32.075V25.175H81.485V31.6875C81.485 35.59 79.6225 36.7575 76.415 36.7575C73.2075 36.7575 71.33 35.59 71.33 31.6875V25.175H73.6475V32.075C73.6475 33.84 74.6675 34.6025 76.4175 34.6025C78.1675 34.6025 79.17 33.8426 79.17 32.075H79.1675Z" fill="#50808C"/>
<path d="M82.9401 25.175H85.2576V36.515H82.9401V25.175Z" fill="#50808C"/>
<path d="M86.875 25.1751H89.1925V34.4076H95.835V36.5126H86.8775V25.1726L86.875 25.1751Z" fill="#50808C"/>
<path d="M96.9675 25.175H101.618C105.375 25.175 107.368 27.1025 107.368 30.845C107.368 34.5875 105.375 36.515 101.618 36.515H96.9675V25.175ZM101.698 34.4075C103.788 34.4075 104.953 33.2075 104.953 30.8275C104.953 28.4475 103.785 27.2801 101.698 27.2801H99.285V34.4075H101.698Z" fill="#50808C"/>
<path d="M108.66 25.175H110.978V36.515H108.66V25.175Z" fill="#50808C"/>
<path d="M112.598 25.175H114.915L120.358 32.66V25.175H122.675V36.515H120.358L114.915 29.015V36.515H112.598V25.175Z" fill="#50808C"/>
<path d="M123.968 30.8427C123.968 26.8577 125.798 24.9302 129.62 24.9302C133.135 24.9302 135.128 26.0977 135.128 29.1102H132.908C132.908 27.4252 131.19 27.0852 129.588 27.0852C127.238 27.0852 126.365 28.2202 126.365 30.8277C126.365 33.4352 127.565 34.6027 129.555 34.6027C130.883 34.6027 131.823 33.6152 132.535 32.4327H129.49V30.4252H135.208V36.5152H132.988V34.2802C132 35.6902 130.67 36.7577 128.988 36.7577C125.845 36.7577 123.965 34.8302 123.965 30.8452L123.968 30.8427Z" fill="#50808C"/>
<path d="M137.528 5.86011C138.778 5.86011 139.61 6.69261 139.61 7.94261C139.61 9.19261 138.778 10.0251 137.528 10.0251C136.278 10.0251 135.445 9.19261 135.445 7.94261C135.445 6.69261 136.278 5.86011 137.528 5.86011ZM137.528 9.55011C138.475 9.55011 139.108 8.90511 139.108 7.94261C139.108 6.98011 138.475 6.33511 137.528 6.33511C136.58 6.33511 135.948 6.98011 135.948 7.94261C135.948 8.90511 136.58 9.55011 137.528 9.55011ZM136.535 7.94761C136.535 7.24511 136.86 6.90511 137.533 6.90511C138.155 6.90511 138.513 7.11011 138.513 7.64011H138.08C138.08 7.38261 137.795 7.32761 137.533 7.32761C137.145 7.32761 137.003 7.51011 137.003 7.94261C137.003 8.37511 137.198 8.57011 137.608 8.57011C137.843 8.57011 138.093 8.53511 138.093 8.28011H138.525C138.525 8.81011 138.155 8.98761 137.608 8.98761C136.883 8.98761 136.535 8.65011 136.535 7.95011V7.94761Z" fill="#50808C"/>
</g>
<defs>
<clipPath id="clip0_33_275">
<rect width="139.608" height="48" fill="white"/>
</clipPath>
</defs>
</svg>
